<svg id="Component_25_1" data-name="Component 25 – 1" xmlns="http://www.w3.org/2000/svg" width="16.486" height="16.486" viewBox="0 0 16.486 16.486">
  <g id="copy">
    <path id="Path_40710" data-name="Path 40710" d="M0,0H16.486V16.486H0Z" fill="none"/>
    <path id="Path_40711" data-name="Path 40711" d="M13.617,2H5.374A1.373,1.373,0,0,0,4,3.374v9.617H5.374V3.374h8.243Zm2.061,2.748H8.122A1.373,1.373,0,0,0,6.748,6.122v9.617a1.373,1.373,0,0,0,1.374,1.374h7.556a1.373,1.373,0,0,0,1.374-1.374V6.122A1.373,1.373,0,0,0,15.678,4.748Zm0,10.991H8.122V6.122h7.556Z" transform="translate(-2.626 -1.313)" fill="#1780cd"/>
  </g>
  <path id="Subtraction_9" data-name="Subtraction 9" d="M8,10H0V0H8V10ZM5,2.186a.331.331,0,1,0,0,.662.992.992,0,0,1,.5,1.85.331.331,0,0,0-.017.563l.13.086.043.023A2.324,2.324,0,0,1,6.974,7.483a.331.331,0,1,0,.661,0,3,3,0,0,0-1.4-2.542A1.656,1.656,0,0,0,5,2.186ZM3.011,5.5A1.989,1.989,0,0,1,5,7.483a.331.331,0,1,0,.662,0A2.652,2.652,0,0,0,4.1,5.073a1.628,1.628,0,0,0,.563-1.232,1.655,1.655,0,0,0-3.31,0,1.629,1.629,0,0,0,.563,1.232A2.652,2.652,0,0,0,.364,7.483a.331.331,0,1,0,.662,0A1.989,1.989,0,0,1,3.011,5.5Zm0-.661a.993.993,0,1,1,.994-.994A.994.994,0,0,1,3.011,4.835Z" transform="translate(5.243 4.743)" fill="#1780cd"/>
</svg>
