<svg xmlns="http://www.w3.org/2000/svg" width="428" height="317.559" viewBox="0 0 428 317.559">
  <g id="maintenance" transform="translate(0.015 -0.008)">
    <g id="_1" data-name="1" transform="translate(-0.015 0.008)">
      <rect id="Rectangle_7366" data-name="Rectangle 7366" width="37.683" height="7.934" transform="translate(326.81 222.376)" fill="#56434b"/>
      <path id="Path_38653" data-name="Path 38653" d="M317.26,66V225.735h2.6V65.29Z" transform="translate(27.089 5.562)" fill="#56434b"/>
      <path id="Path_38654" data-name="Path 38654" d="M303.338,113.576c2.854-3.918,3.191-10.777,2.8-15.911-.293-3.842-1.085-7.489-1.194-11.374A40.8,40.8,0,0,1,307,72.973c.488-1.5-1.867-1.259-2.171-.2a43.12,43.12,0,0,0-2.095,16.866c.564,7.033,3.082,17.278-1.27,23.248C300.43,114.248,302.72,114.433,303.338,113.576Z" transform="translate(25.719 6.128)" fill="#60424a"/>
      <path id="Path_38655" data-name="Path 38655" d="M306.388,110.5a3.994,3.994,0,1,0-3.983,3.831A3.907,3.907,0,0,0,306.388,110.5Z" transform="translate(25.48 9.065)" fill="#8e6e76"/>
      <path id="Path_38656" data-name="Path 38656" d="M349.821,31.521S336.07,26.659,297.4,29.437l-14.109,52.9s45.356-3.82,79.946,7.315Z" transform="translate(24.19 2.43)" fill="#0074b7"/>
      <path id="Path_38657" data-name="Path 38657" d="M362.659,77.63c-20.4-.119-69.461-5.72-80.065-7.38L280,80.083c5.774,4.678,67.128,8.335,85.047,7.771Z" transform="translate(23.91 5.986)" fill="#0092e6"/>
      <path id="Path_38658" data-name="Path 38658" d="M341.192,73.9c5.958-2.171,10.321-6.859,12.818-13.024l-6.772-29.358s-13.209-4.667-50.066-2.247a47.3,47.3,0,0,0,3.723,19.178C308.849,67.685,326.9,79.092,341.192,73.9Z" transform="translate(25.374 2.43)" fill="#0092e6"/>
      <rect id="Rectangle_7367" data-name="Rectangle 7367" width="4.32" height="86.512" transform="translate(390.943 231.048)" fill="#773939"/>
      <rect id="Rectangle_7368" data-name="Rectangle 7368" width="4.32" height="86.512" transform="translate(350.666 231.048)" fill="#773939"/>
      <rect id="Rectangle_7369" data-name="Rectangle 7369" width="36.369" height="6.946" transform="translate(365.459 226.836)" fill="#773939"/>
      <rect id="Rectangle_7370" data-name="Rectangle 7370" width="4.32" height="86.512" transform="translate(365.871 231.048)" fill="#995f5f"/>
      <rect id="Rectangle_7371" data-name="Rectangle 7371" width="4.32" height="86.512" transform="translate(325.595 231.048)" fill="#995f5f"/>
      <rect id="Rectangle_7372" data-name="Rectangle 7372" width="4.32" height="17.539" transform="translate(365.871 230.31)" fill="#773939"/>
      <rect id="Rectangle_7373" data-name="Rectangle 7373" width="4.32" height="17.539" transform="translate(325.595 230.31)" fill="#773939"/>
      <rect id="Rectangle_7374" data-name="Rectangle 7374" width="54.451" height="6.946" transform="translate(316.554 226.836)" fill="#995f5f"/>
      <path id="Path_38660" data-name="Path 38660" d="M88.972,203.53H58.756L51.3,218.779l43.316,2.594Z" transform="translate(4.394 17.359)" fill="#7f6f76"/>
      <ellipse id="Ellipse_770" data-name="Ellipse 770" cx="10.408" cy="12.644" rx="10.408" ry="12.644" transform="translate(71.312 291.783)" fill="#42333a"/>
      <rect id="Rectangle_7375" data-name="Rectangle 7375" width="70.894" height="10.908" transform="translate(57.919 302.94)" fill="#42333a"/>
      <path id="Path_38661" data-name="Path 38661" d="M266.582,251.7c-1.422-3.256-3.81-5.427-5.318-4.732s-1.6,3.842-.174,7.12,3.8,5.427,5.318,4.732S267.993,254.98,266.582,251.7Z" transform="translate(22.209 21.055)" fill="#564447"/>
      <path id="Path_38662" data-name="Path 38662" d="M151.69,263h7.988a117.482,117.482,0,0,0,4.113,19.97l-6.881.467C158.311,278.054,151.69,263,151.69,263Z" transform="translate(12.961 22.434)" fill="#ddbf92"/>
      <path id="Path_38663" data-name="Path 38663" d="M189.957,261.26l-7.6,2.409a118.137,118.137,0,0,1,2.171,20.274l6.7-1.682C188.286,277.616,189.957,261.26,189.957,261.26Z" transform="translate(15.578 22.285)" fill="#ddbf92"/>
      <path id="Path_38664" data-name="Path 38664" d="M141,293.136h29.749s-3.831-13.165-9.985-15.195-1.661,8.227-13.827,9.659C143.173,288.024,140.709,291.692,141,293.136Z" transform="translate(12.047 23.686)"/>
      <path id="Path_38665" data-name="Path 38665" d="M210.748,293.021H180.63s.923-11.939,6.686-13.762S190.854,286.7,203.5,288C207.416,288.408,210.748,291.718,210.748,293.021Z" transform="translate(15.43 23.801)"/>
      <path id="Path_38666" data-name="Path 38666" d="M205.585,102.12,215.744,139.3l-15.119,7.814L183.77,112.29Z" transform="translate(15.698 8.705)" fill="#ffa77b"/>
      <path id="Path_38667" data-name="Path 38667" d="M195.665,127.039c-2.659-5.427,4.211-13.729,10.68-16.866.423-.206.857-.391,1.281-.554l-2.051-7.5-21.8,10.17,16.855,34.828,15.119-7.814-2.279-8.325C207.7,132.607,197.988,131.815,195.665,127.039Z" transform="translate(15.698 8.705)" fill="#ea875c"/>
      <path id="Path_38668" data-name="Path 38668" d="M193.336,50.73s12.438,10.18,13.61,13.567-.64,29.771-.64,29.771,1.085.38,1.161,2.637a4.1,4.1,0,0,1-1.813,3.4l1.237,7.163-19.536,13.187s-8.683-35.045-7.456-47.863S193.336,50.73,193.336,50.73Z" transform="translate(15.358 4.32)" fill="#0092e6"/>
      <path id="Path_38669" data-name="Path 38669" d="M195.537,105.128c-.923-2.388,2.746-6.045,8.205-8.162a23.465,23.465,0,0,1,3.636-1.085,2.637,2.637,0,0,0-.695-1.552,4.841,4.841,0,0,1-2.844,1.009c-5.7,0-10.311-11.526-10.311-25.744a52.965,52.965,0,0,1,2.453-16.649c-1.552-1.324-2.648-2.225-2.648-2.225s-12.123,9.052-13.4,21.859,7.456,47.863,7.456,47.863l19.536-13.187-.26-1.454C201.355,107.733,196.438,107.461,195.537,105.128Z" transform="translate(15.36 4.319)" fill="#0074b7"/>
      <path id="Path_38670" data-name="Path 38670" d="M184,119.072c-1.085-.26-2.4-3.126-2.4-3.126s15.922-15.444,19-18.125,9.356-.64,9.258,1.226.521,8.227-1.085,8.552S184,119.072,184,119.072Z" transform="translate(15.513 8.228)" fill="#0074b7"/>
      <path id="Path_38671" data-name="Path 38671" d="M196.144,109.574a14.565,14.565,0,0,1,7.5-13.024,5.535,5.535,0,0,0-3.05,1.259c-3.082,2.681-19,18.125-19,18.125s1.313,2.865,2.4,3.126c0,0,6.306-3.028,12.568-5.98a16.282,16.282,0,0,1-.412-3.506Z" transform="translate(15.512 8.23)" fill="#0092e6"/>
      <path id="Path_38672" data-name="Path 38672" d="M311.593,286.21H293.306l-7.956,6.2h34.2Z" transform="translate(24.366 24.414)" fill="#56434b"/>
      <path id="Path_38673" data-name="Path 38673" d="M138.887,41.955c-20.328,51.564-17.1,171.483,10.853,253.338l20.817-4.96s-14.869-93.7-14.869-133.6l2.974,1.237c1.259,28.816,12.221,81.693,23.3,134.853l20.328,3.462s-11.939-151.328-9.768-185.418c.608-9.9,7.8-57.013,7.8-57.013s-18.841-19.829-23.8-19.33S138.887,41.955,138.887,41.955Z" transform="translate(10.753 2.936)" fill="#5c8ebc"/>
      <path id="Path_38674" data-name="Path 38674" d="M188.25,285.238c-10.311-49.035-21.533-97.094-21.794-139.671L145.51,139.12l8.552,9.171V147.8l2.974,1.237c.25,5.839.912,12.677,1.888,20.3l5.318,33.808c4.341,24.474,10.224,52.574,16.1,80.749Z" transform="translate(12.433 11.863)" fill="#3f7099"/>
      <path id="Path_38675" data-name="Path 38675" d="M133.927,145.638c0-40.3,5.318-77.243,14.174-106.048l-9.214,1.932C118.559,93.086,121.782,213,149.741,294.86l9.67-2.6C141.98,250.59,133.927,208.131,133.927,145.638Z" transform="translate(10.753 3.369)" fill="#3f7099"/>
      <path id="Path_38676" data-name="Path 38676" d="M195.5,50.443c-5.644-5.644-16.8-16.28-20.459-15.922s-21.707,4.092-31.475,6.132c5.166,13.122,4.895,37.118,4.895,37.118s30.118,2.789,42.2-1.3C190.706,76.469,193.962,61.459,195.5,50.443Z" transform="translate(12.268 2.936)" fill="#0092e6"/>
      <path id="Path_38677" data-name="Path 38677" d="M188.633,43.844C183.347,39,177.5,34.271,175.045,34.521c-3.582.358-21.707,4.092-31.475,6.132a60.084,60.084,0,0,1,3.006,11.678,78.082,78.082,0,0,0,10.658.716C171.7,53.047,183.825,49.249,188.633,43.844Z" transform="translate(12.268 2.936)" fill="#0487d2"/>
      <path id="Path_38678" data-name="Path 38678" d="M194.5,136.48c15.064-9.855,21.935-4.83,21.935-4.83l.933,25.462-16.171-3.9Z" transform="translate(16.614 11.116)" fill="#d6bdbd"/>
      <path id="Path_38679" data-name="Path 38679" d="M215.545,131.691s-3.4-2.475-10.625-.543a30.932,30.932,0,0,0,1.009,6.794c2.062,7.934,6.6,13.664,10.332,13.2Z" transform="translate(17.503 11.119)" fill="#f4deba"/>
      <path id="Path_38680" data-name="Path 38680" d="M188.476,99.04l-1.856,2.225L271.276,278.63l1.237-9.29Z" transform="translate(15.941 8.442)" fill="#564447"/>
      <path id="Path_38681" data-name="Path 38681" d="M261.959,295.077h59.867L266.17,254.92l-5.22,4.461Z" transform="translate(22.284 21.744)" fill="#7a6a6e"/>
      <path id="Path_38682" data-name="Path 38682" d="M266.644,255.267l-.478-.347L261,259.348l1.009,35.7h30.682C274.545,283.052,263.974,266.5,266.644,255.267Z" transform="translate(22.288 21.744)" fill="#66585c"/>
      <path id="Path_38683" data-name="Path 38683" d="M259.65,292.461h67.486l-2.225-6.881-65.077,3.538Z" transform="translate(22.173 24.36)" fill="#7a6a6e"/>
      <path id="Path_38684" data-name="Path 38684" d="M42.055,261.921c-16.345,0-30.389-9.128-37.585-24.4s-5.557-33.048,4.211-44.911c7-8.433,24.377-21.121,62.233-11.342,36.163,9.334,71.773,4.6,84.656-11.222,7.207-8.845,7.272-20.741.174-35.382-9.54-19.7-.282-39.322,13.751-46.192,11.852-5.817,30.161-3.8,42.784,20.99a4.406,4.406,0,0,1-1.932,5.937,4.461,4.461,0,0,1-5.959-1.975c-9.659-18.982-22.314-21.229-30.943-17-10.256,5.025-16.888,19.612-9.768,34.405,10.853,22.455,5.318,36.793-1.27,44.868-15.195,18.668-53.789,24.518-93.784,14.2-24.529-6.317-43.413-3.343-53.181,8.422-7.6,9.2-8.824,23.107-3.028,35.4C18.08,245.76,29.1,252.956,41.881,252.956a4.482,4.482,0,0,1,0,8.965Z" transform="translate(0.019 7.309)" fill="#564447"/>
      <path id="Path_38685" data-name="Path 38685" d="M42.047,245.315c-12.785,0-23.8-7.2-29.467-19.232-5.8-12.3-4.6-26.146,3.028-35.4,4.7-5.676,11.548-9.29,20.111-10.853A146.428,146.428,0,0,1,21.035,175.3a38.073,38.073,0,0,0-12.351,9.67C-1.084,196.833-2.81,214.459,4.44,229.881s21.24,24.4,37.585,24.4a4.482,4.482,0,0,0,0-8.965Z" transform="translate(0.015 14.95)" fill="#49383c"/>
      <path id="Path_38686" data-name="Path 38686" d="M87.591,185.976H85.67c16.345,1.628,31.627.467,44.151-3.256a264.978,264.978,0,0,1-42.23,3.256Z" transform="translate(7.327 15.583)" fill="#49383c"/>
      <path id="Path_38687" data-name="Path 38687" d="M200.4,109.464c-12.644-24.789-30.932-26.808-42.784-20.99-12.329,6.034-20.969,21.9-16.421,39.018q5.524,1.368,10.5,2.974c-6.881-14.674-.293-29.054,9.876-34.036,8.628-4.233,21.283-1.986,30.943,17a4.461,4.461,0,0,0,5.958,1.975,4.406,4.406,0,0,0,1.932-5.937Z" transform="translate(11.96 7.309)" fill="#49383c"/>
      <path id="Path_38688" data-name="Path 38688" d="M142.975,89.295s.369-3.723-1.3-3.354c0,0,6.327-41.46-.923-44.618S105.433,80.916,110.437,94.5c1.3,3.538,5.427,4.276,5.427,4.276s-3.158,6.512,1.671,10.419S142.975,89.295,142.975,89.295Z" transform="translate(9.39 3.503)" fill="#0092e6"/>
      <path id="Path_38689" data-name="Path 38689" d="M117.849,101.691c-1.888-5.861,4.537-13.187,14.359-16.356a28.576,28.576,0,0,1,9.518-1.422c.2-1.335.944-6.566,1.574-13.024-5.774,9.963-12.785,15.8-17.941,13.979-5.427-1.878-7.174-11.6-5.079-23.769-6.946,11.711-12.264,25.093-9.844,31.659,1.3,3.538,5.427,4.276,5.427,4.276s-3.158,6.512,1.671,10.419c1.085.857,2.909.369,5.134-.923a8.314,8.314,0,0,1-4.819-4.841Z" transform="translate(9.39 5.205)" fill="#0487d2"/>
      <path id="Path_38690" data-name="Path 38690" d="M116.73,103.864c6.327,7.814,45.182-4.461,45.182-4.461l5.579-15.195s-21.761-.933-27.893.185S116.73,103.864,116.73,103.864Z" transform="translate(9.977 7.146)" fill="#ffa77b"/>
      <path id="Path_38691" data-name="Path 38691" d="M158.982,83.89c-5.568,8.151-12.3,13.024-15.477,11.016-2.171-1.368-2.171-5.633-.336-10.929a32.035,32.035,0,0,0-3.571.369c-6.132,1.085-22.868,19.536-22.868,19.536,6.327,7.814,45.182-4.461,45.182-4.461l5.579-15.195S163.768,84.009,158.982,83.89Z" transform="translate(9.977 7.15)" fill="#ea875c"/>
      <path id="Path_38692" data-name="Path 38692" d="M150.821,105.19c-.369-13.947,9.855-23.79,9.855-23.79s13.751,5.763,17.1,8.173c0,0,8.183,1.671,10.224,4.841s2.171,15.8,1.085,15.8-11.711-.38-13.577-2.789a17.192,17.192,0,0,1-2.6-5.948l-3.126-.977Z" transform="translate(12.886 6.937)" fill="#f4deba"/>
      <path id="Path_38693" data-name="Path 38693" d="M189,108.468c-3.006,1.085-7.076-2.844-9.084-8.683a16.761,16.761,0,0,1-.5-1.682,43.556,43.556,0,0,1-8.867-1.639,38.171,38.171,0,0,1-15.347-8.325,31.648,31.648,0,0,0-4.417,16.475l18.993-4.689,3.158.933a17.192,17.192,0,0,0,2.6,5.948c1.867,2.409,12.46,2.789,13.578,2.789.228,0,.4-.564.521-1.465A3.136,3.136,0,0,1,189,108.468Z" transform="translate(12.884 7.512)" fill="#d6bdbd"/>
      <path id="Path_38694" data-name="Path 38694" d="M220.222,164.28c-3.636,1.639-8.01,4.027-9.16,3.256s-9.974-10.115-10.723-12.883,2.659-8.683,4.689-9.432S225.344,161.969,220.222,164.28Z" transform="translate(17.103 12.381)" fill="#d6bdbd"/>
      <path id="Path_38695" data-name="Path 38695" d="M220.632,163.512c1.693-4.081-14.109-19-15.954-18.32l-.282.141a16.366,16.366,0,0,0,3.061,11.157C210.984,161.635,216.356,164.337,220.632,163.512Z" transform="translate(17.452 12.379)" fill="#f4deba"/>
      <path id="Path_38696" data-name="Path 38696" d="M157.76,38.277,162.1,25.72l16.758,3.56-1.671,11.342S177,52.886,168.071,52.7C161.157,52.539,157.76,38.277,157.76,38.277Z" transform="translate(13.479 2.186)" fill="#dd704a"/>
      <path id="Path_38697" data-name="Path 38697" d="M155.67,37.518l2.735-1.737s4.461,13.881,11.027,14.359,8.552-14.5,8.552-14.5l.988.868a29.3,29.3,0,0,1-5.2,19.536l-3.723-3.712h-1l-4.591,4.58C159.664,51.421,156.191,45.213,155.67,37.518Z" transform="translate(13.3 3.032)" fill="#e5ddcf"/>
      <path id="Path_38698" data-name="Path 38698" d="M164.228,12.812c-4.461,8.173-4.2,26.048-2.627,28.642s7.6,5.513,8.932,5.513,8.932.26,10.246-1.834,9.985-21.023,10.256-26.048S184.2,10.4,179.727,8.308,165.8,9.915,164.228,12.812Z" transform="translate(13.718 0.648)" fill="#ffa77b"/>
      <path id="Path_38699" data-name="Path 38699" d="M181.376,23.978a30.389,30.389,0,0,1,8.1,1.085,26.534,26.534,0,0,0,1.563-5.948c.261-4.993-6.838-8.683-11.309-10.777s-13.925,1.574-15.5,4.472c-2.9,5.3-3.8,14.63-3.647,21.283C163.772,28.178,171.89,23.978,181.376,23.978Z" transform="translate(13.718 0.65)" fill="#ea875c"/>
      <path id="Path_38700" data-name="Path 38700" d="M159.468,34.439c-2.757-8.466-.1-19.6-.1-19.6l9.453-.1L164.1,24.693l-3.061,1.769-.2,4.341Z" transform="translate(13.518 1.249)" fill="#663842"/>
      <path id="Path_38701" data-name="Path 38701" d="M158.73,19.047c-.2-8.683,6.9-17.365,14.392-18.527S188.7.325,189.673,1.9s.4,17.539.4,17.539C179.981,15.1,169.725,15.975,158.73,19.047Z" transform="translate(13.561 -0.008)" fill="#0092e6"/>
      <path id="Path_38702" data-name="Path 38702" d="M168.986,12.935c0-5.6,3.8-10.463,9.377-12.9a43.414,43.414,0,0,0-5.231.488c-7.489,1.183-14.587,9.855-14.392,18.527a71.751,71.751,0,0,1,10.853-2.236,12.188,12.188,0,0,1-.608-3.875Z" transform="translate(13.562 -0.006)" fill="#0074b7"/>
      <path id="Path_38703" data-name="Path 38703" d="M195.167,10.186c-7.1-2.572-27.492,0-33.8,7.283,15.195-3.495,30.465.749,28.479,6.11C214.085,20.823,202.265,12.748,195.167,10.186Z" transform="translate(13.787 0.777)" fill="#0074b7"/>
      <path id="Path_38704" data-name="Path 38704" d="M162.335,149.115l11.146-4.276-13.751-.749Z" transform="translate(13.647 12.287)" fill="#3f7099"/>
      <path id="Path_38705" data-name="Path 38705" d="M157.661,19.746c-4.341,1.975-3.343,9.258,4.537,10.647C162.2,30.394,162,17.771,157.661,19.746Z" transform="translate(13.252 1.658)" fill="#ea875c"/>
      <path id="Path_38706" data-name="Path 38706" d="M157.928,21.49c-2.757,1.259-2.171,5.883,2.876,6.762C160.8,28.252,160.674,20.242,157.928,21.49Z" transform="translate(13.354 1.814)" fill="#cc4f46"/>
      <path id="Path_38707" data-name="Path 38707" d="M159.52,23c-1.758.716-1.628,3.994,1.4,4.917C160.92,27.943,161.289,22.321,159.52,23Z" transform="translate(13.531 1.949)" fill="#ea875c"/>
      <path id="Path_38708" data-name="Path 38708" d="M144.087,84.256c0-1.237-2.6-3.256-2.6-3.256S116.694,96.368,113.72,98.843s2.355,8.683,3.961,9.052,9.052,1.085,9.67-.38S144.087,84.256,144.087,84.256Z" transform="translate(9.645 6.903)" fill="#0074b7"/>
      <path id="Path_38709" data-name="Path 38709" d="M130.076,90.646a14.923,14.923,0,0,1,.38-3.256C123.423,91.818,115.337,97,113.72,98.341c-2.974,2.475,2.355,8.683,3.961,9.052s9.052,1.085,9.67-.38c.228-.543,2.561-3.853,5.427-7.814a14.522,14.522,0,0,1-2.7-8.552Z" transform="translate(9.645 7.448)" fill="#0074b7"/>
      <path id="Path_38710" data-name="Path 38710" d="M272.229,288.22l-12.394.673-.185,3.343h12.579Z" transform="translate(22.173 24.586)" fill="#66585c"/>
      <path id="Path_38711" data-name="Path 38711" d="M262.511,252.993c-1.422-3.256-3.8-5.427-5.318-4.743s-1.585,3.853-.163,7.12,3.8,5.427,5.307,4.732S263.977,256.26,262.511,252.993Z" transform="translate(21.862 21.164)" fill="#443639"/>
      <path id="Path_38712" data-name="Path 38712" d="M244.652,273.75c1.726,0,3.885-.8,3.94-2.54a2.04,2.04,0,0,0-3.354-1.357c2.4-1.91,5.025-4.341,4.862-7.359a2.746,2.746,0,0,0-1.194-2.3,3.886,3.886,0,0,0-1.65-.347,6.967,6.967,0,0,0-2.844.25,2.333,2.333,0,0,0-1.606,2.171,7.662,7.662,0,0,0-2.963-5.242,6.74,6.74,0,0,0-5.872-1.085c-3.516,1.085-5.427,5.286-4.721,8.889s3.495,6.512,6.707,8.335a3.929,3.929,0,0,0,2.3,3.375,11.537,11.537,0,0,0,4.168.977c3.365.358,7.033.521,10.376-1.085l.228-.25C250.415,278.3,242.091,277.082,244.652,273.75Z" transform="translate(19.567 21.809)" fill="#d8d2c0"/>
      <path id="Path_38713" data-name="Path 38713" d="M291.664,243.956a2.811,2.811,0,0,0-2.344-1.085,1.628,1.628,0,0,0-1.226.923c0-1.7-.2-3.484-1.53-4.428s-3.256-.575-4.754,0a7.078,7.078,0,0,0-2.6,1.606,8.487,8.487,0,0,0-2.6,5.752c0,2.344,1.02,10.126,9.942,10.691l.174-.326a1.693,1.693,0,0,1-1.226-2.171,3.44,3.44,0,0,1,2.073-1.91,23.181,23.181,0,0,0,2.713-1.085,5.112,5.112,0,0,0,1.346-7.966Z" transform="translate(23.62 20.367)" fill="#d8d2c0"/>
      <path id="Path_38714" data-name="Path 38714" d="M316,267.275c.054.347.13.684.217,1.02-.065-.347-.163-.673-.206-1.085Z" transform="translate(26.982 22.793)" fill="#d8d2c0"/>
      <path id="Path_38715" data-name="Path 38715" d="M371.415,256.8a6.512,6.512,0,0,0-7.1-4.45,4.558,4.558,0,0,0-3.256,2.171c-.532,1.02-.63,2.4-1.628,2.974.141-2.019,1.747-3.582,2.626-5.427a7.6,7.6,0,0,0-3.69-10.007c-3.69-1.519-8.509.977-9.2,4.895a14.9,14.9,0,0,0-8.216-11.114,14.109,14.109,0,0,0-13.708,1,13.339,13.339,0,0,0-5.654,12.438,14.11,14.11,0,0,0,2.073,5.665,16.064,16.064,0,0,0,5.958,5.579c3.256,1.769,7.293,2.453,9.768,5.21a9.269,9.269,0,0,1,.575,11.06,11.678,11.678,0,0,1-10.322,4.819,15.868,15.868,0,0,1-10.4-5.242,12.872,12.872,0,0,1-3.093-5.286,16.28,16.28,0,0,0,6.208,9.464c1.411,1.085-.282,6.7,6.295,6.23,1.085-.076,2.171-.923,3.093-.358-1.3,1.726.119,4.591,2.268,4.862a4.026,4.026,0,0,0,4.189-3.929,12.021,12.021,0,0,1,0-2.073,3.31,3.31,0,0,1,2.388-2.366,6.945,6.945,0,0,1,3.495.1,3.56,3.56,0,0,0-1.487,5.058,4.526,4.526,0,0,0,5.351,1.53,6.23,6.23,0,0,0,3.56-4.569c.391-1.953,0-4.037.706-5.893a5.578,5.578,0,0,1,4.917-3.571,28.456,28.456,0,0,1,3.169.3,6.089,6.089,0,0,0,4.613-1.443,3.907,3.907,0,0,0,.912-4.537,3.05,3.05,0,0,0-2.941-1.465,18.181,18.181,0,0,0,6.034-3.8C370.981,262.576,372.207,259.547,371.415,256.8Z" transform="translate(26.994 20.004)" fill="#d8d2c0"/>
      <path id="Path_38716" data-name="Path 38716" d="M396.205,264.062a1.574,1.574,0,0,0-.662-.554,3.375,3.375,0,0,0-3.625.456,9.486,9.486,0,0,0,2.431-5.144,2.909,2.909,0,0,0-.076-1.433,2.539,2.539,0,0,0-1.194-1.237,4.841,4.841,0,0,0-7.087,5.362,6.381,6.381,0,0,0-2.7-3.6,3.679,3.679,0,0,0-4.276.326,2.637,2.637,0,0,0,.206,3.983c.716.456,1.791.608,1.986,1.422a1.313,1.313,0,0,1-1.031,1.443,4.243,4.243,0,0,1-1.954,0c-4.341-.792-8.466,5.611-7.673,7.7l.087-.184c.163-2.768,3.137-4.656,5.9-4.776s5.427,1.009,8.075,1.834,5.644,1.324,8.107.054a7.522,7.522,0,0,0,3.419-3.94,1.932,1.932,0,0,0,.065-1.7Z" transform="translate(31.628 21.795)" fill="#d8d2c0"/>
      <path id="Path_38717" data-name="Path 38717" d="M371.4,256.56a6.512,6.512,0,0,0-7.1-4.45,4.558,4.558,0,0,0-3.256,2.171c-.532,1.02-.629,2.4-1.628,2.974.141-2.019,1.747-3.582,2.626-5.427a7.294,7.294,0,0,0,.521-4.5c-1.281,2.92-3.386,4.83-5.763,4.83-3.1,0-5.731-3.256-6.686-7.728a5.644,5.644,0,0,0-.966,2.29,15.011,15.011,0,0,0-5.329-9.366,19.818,19.818,0,0,1,3.582,11.45,19.037,19.037,0,0,1-8.444,16.139c.184.163.369.315.543.5a9.269,9.269,0,0,1,.575,11.06,11.678,11.678,0,0,1-10.322,4.819,15.868,15.868,0,0,1-10.4-5.242,12.873,12.873,0,0,1-3.093-5.286,16.28,16.28,0,0,0,6.208,9.464c1.411,1.085-.282,6.7,6.295,6.23,1.085-.076,2.171-.923,3.093-.358-1.3,1.726.119,4.591,2.268,4.862a4.027,4.027,0,0,0,4.189-3.929,12.021,12.021,0,0,1,0-2.073,3.31,3.31,0,0,1,2.388-2.366,6.947,6.947,0,0,1,3.495.1,3.56,3.56,0,0,0-1.487,5.058,4.526,4.526,0,0,0,5.351,1.53,6.23,6.23,0,0,0,3.56-4.569c.391-1.954,0-4.037.705-5.893a5.579,5.579,0,0,1,4.917-3.571,28.472,28.472,0,0,1,3.169.3,6.089,6.089,0,0,0,4.613-1.444,3.907,3.907,0,0,0,.912-4.537A3.05,3.05,0,0,0,363,268.13a18.181,18.181,0,0,0,6.034-3.8C370.971,262.334,372.2,259.306,371.4,256.56Z" transform="translate(27.005 20.245)" fill="#c6bda7"/>
      <path id="Path_38718" data-name="Path 38718" d="M354.278,262.585c0-4.1-2.323-7.435-5.2-7.435s-5.21,3.332-5.21,7.435,2.333,7.435,5.21,7.435S354.278,266.687,354.278,262.585Z" transform="translate(29.36 21.764)" fill="#d8d2c0"/>
      <path id="Path_38719" data-name="Path 38719" d="M396.205,263.906a1.574,1.574,0,0,0-.662-.554,3.376,3.376,0,0,0-3.625.456,9.486,9.486,0,0,0,2.431-5.144,3.018,3.018,0,0,0-.054-1.324,9.974,9.974,0,0,1-9.681,7.044,10.635,10.635,0,0,1-3.408-.575,1.411,1.411,0,0,1-1.031,1.085,4.245,4.245,0,0,1-1.954,0c-4.341-.792-8.466,5.611-7.673,7.695l.087-.185c.163-2.768,3.137-4.656,5.9-4.775s5.427,1.009,8.075,1.834,5.644,1.324,8.107.054a7.522,7.522,0,0,0,3.419-3.94A1.932,1.932,0,0,0,396.205,263.906Z" transform="translate(31.628 21.951)" fill="#c6bda7"/>
      <path id="Path_38720" data-name="Path 38720" d="M291.654,243.868a2.811,2.811,0,0,0-2.344-1.085,1.628,1.628,0,0,0-1.226.923,5.883,5.883,0,0,0-.955-3.885v.358c0,5.427-2.887,9.768-6.447,9.768a5.253,5.253,0,0,1-3.961-2.073c.391,3.115,2.171,8.911,9.844,9.388l.174-.326a1.693,1.693,0,0,1-1.226-2.171,3.441,3.441,0,0,1,2.073-1.91,23.167,23.167,0,0,0,2.713-1.085,5.112,5.112,0,0,0,1.346-7.966Z" transform="translate(23.63 20.456)" fill="#c6bda7"/>
      <path id="Path_38721" data-name="Path 38721" d="M244.652,273.526c1.726,0,3.885-.8,3.94-2.54a2.04,2.04,0,0,0-3.354-1.357c2.4-1.91,5.025-4.341,4.862-7.359a3.788,3.788,0,0,0-.13-.781c-1.889,4.8-5.307,8.01-9.214,8.01-4.721,0-8.683-4.678-10.18-11.179a8.444,8.444,0,0,0-1.324,6.273c.705,3.614,3.495,6.512,6.707,8.335a3.929,3.929,0,0,0,2.3,3.375,11.539,11.539,0,0,0,4.168.977c3.365.358,7.033.521,10.376-1.085l.228-.25C250.415,278.073,242.09,276.857,244.652,273.526Z" transform="translate(19.567 22.034)" fill="#c6bda7"/>
      <path id="Path_38722" data-name="Path 38722" d="M261.33,253.212c-.532-1.216-1.411-2.008-1.975-1.758s-.6,1.422-.065,2.637,1.411,2.008,1.975,1.769S261.851,254.427,261.33,253.212Z" transform="translate(22.11 21.444)" fill="#7a6a6e"/>
      <path id="Path_38723" data-name="Path 38723" d="M215.662,144.09c2.713,3.647,2.778,9.529,2.594,12.633-.054.89-.684,1.183-1.422.695-2.507-1.7-6.859-6.707-7.044-8.542a4.721,4.721,0,0,1,.423-2.171,1.085,1.085,0,0,1,1.954-.217,1.509,1.509,0,0,0,2.616-.3Z" transform="translate(17.918 12.287)" fill="#f4deba"/>
      <path id="Path_38724" data-name="Path 38724" d="M139.064,41.323c-1.975-.857-5.492,1.693-9.464,6.121a48.645,48.645,0,0,0,12.8,3.82C142.06,46.109,141.094,42.213,139.064,41.323Z" transform="translate(11.076 3.503)" fill="#0074b7"/>
      <path id="Path_38725" data-name="Path 38725" d="M147.1,78.73c.174-1.335-.488-2.42-1.487-2.42s-1.932,1.085-2.106,2.42.5,2.42,1.487,2.42S146.942,80.065,147.1,78.73Z" transform="translate(12.261 6.503)" fill="#3f7099"/>
      <path id="Path_38726" data-name="Path 38726" d="M187.415,79.13c.174-1.335-.488-2.42-1.487-2.42S184,77.8,183.822,79.13s.5,2.42,1.487,2.42A2.529,2.529,0,0,0,187.415,79.13Z" transform="translate(15.7 6.537)" fill="#3f7099"/>
      <path id="Path_38727" data-name="Path 38727" d="M193.577,47.77C192.014,58.732,188.8,73.3,188.8,73.3c-10.484,3.549-34.535,1.921-40.722,1.422V76.64s30.118,2.789,42.2-1.3c0,0,3.321-15.01,4.841-26.048Z" transform="translate(12.653 4.067)" fill="#ef9348"/>
      <path id="Path_38728" data-name="Path 38728" d="M175.77,89.22c6.132.488,10.126-.109,11.656,1.172,5.883,4.927,4.113,9.388,4.113,9.388s-3.441-4.341-3.994-4.341-2.909-.185-2.909-.185Z" transform="translate(15.015 7.604)" fill="#f4deba"/>
      <path id="Path_38729" data-name="Path 38729" d="M48.734,235.559l-6.512-1.943a4.895,4.895,0,0,0-6.056,3.137c-1.585,4.884-3.375,12.894-.825,19.286a4.775,4.775,0,0,0,3.017,2.713l12.883,4.07Z" transform="translate(2.923 19.908)" fill="#42333a"/>
      <path id="Path_38730" data-name="Path 38730" d="M94,212.89H49.874c-7.858,20.437-11.005,45.4-4.71,79.349h82.8l-4.71-71.882Z" transform="translate(3.585 18.158)" fill="#685159"/>
      <path id="Path_38731" data-name="Path 38731" d="M84.583,277.467c0-17.865,15.423-32.343,34.448-32.343a36.017,36.017,0,0,1,5.872.478l-1.65-25.267L94,212.89H49.874c-7.858,20.437-11.005,45.4-4.71,79.349H88.37a30.574,30.574,0,0,1-3.788-14.771Z" transform="translate(3.585 18.158)" fill="#5b454d"/>
      <ellipse id="Ellipse_771" data-name="Ellipse 771" cx="10.408" cy="12.644" rx="10.408" ry="12.644" transform="translate(43.05 291.783)" fill="#42333a"/>
      <path id="Path_38732" data-name="Path 38732" d="M58.749,281.283c0-6.273-4.189-11.353-9.345-11.353s-9.345,5.079-9.345,11.353,4.189,11.342,9.345,11.342S58.749,287.545,58.749,281.283Z" transform="translate(3.435 23.025)" fill="#56434b"/>
      <path id="Path_38733" data-name="Path 38733" d="M123.736,287.754a4.689,4.689,0,1,0-4.656,5.134A4.906,4.906,0,0,0,123.736,287.754Z" transform="translate(9.777 24.184)" fill="#42333a"/>
      <path id="Path_38734" data-name="Path 38734" d="M43,239.307l82.366,14.945L123.2,220.325,93.9,212.89H49.772A118.04,118.04,0,0,0,43,239.307Z" transform="translate(3.686 18.158)" fill="#0092e6"/>
      <path id="Path_38735" data-name="Path 38735" d="M88.2,233.218A103.2,103.2,0,0,1,68.549,212.89H49.772A118.04,118.04,0,0,0,43,239.307l82.366,14.945-.174-2.735C115.11,250.247,101.358,243.713,88.2,233.218Z" transform="translate(3.686 18.158)" fill="#0074b7"/>
      <path id="Path_38736" data-name="Path 38736" d="M122.825,287.695a3.853,3.853,0,1,0-3.831,4.211,4.037,4.037,0,0,0,3.831-4.211Z" transform="translate(9.841 24.243)" fill="#56434b"/>
      <path id="Path_38737" data-name="Path 38737" d="M86.964,204.88H61.99L64,211.24H88.971Z" transform="translate(5.306 17.474)" fill="#a09098"/>
      <path id="Path_38738" data-name="Path 38738" d="M86.281,204.44H75.33l.879,2.789H87.16Z" transform="translate(6.445 17.436)" fill="#d3c1c8"/>
      <path id="Path_38739" data-name="Path 38739" d="M42.77,239.112l82.757,15.195-.163-2.388L43.02,236.8Q42.9,237.94,42.77,239.112Z" transform="translate(3.666 20.198)" fill="#42333a"/>
      <path id="Path_38740" data-name="Path 38740" d="M120.764,244.876a6.677,6.677,0,0,1-1.91-.109l-15.933-3.256a6.675,6.675,0,0,1-5.155-4.841l-6.317-23.4-1.541-.4h-.1l6.512,24.181a8.205,8.205,0,0,0,6.295,5.915l15.933,3.256a8.68,8.68,0,0,0,1.661.163h.651Z" transform="translate(7.68 18.156)" fill="#5b454d"/>
      <path id="Path_38741" data-name="Path 38741" d="M116.614,221.119l-8.954-2.279v.771c0,7.51,3.788,13.61,8.455,13.61a5.794,5.794,0,0,0,1.3-.174Z" transform="translate(9.204 18.665)" fill="#0074b7"/>
      <path id="Path_38742" data-name="Path 38742" d="M106.128,218.751l-4.548-1.161v.391c0,3.82,1.921,6.914,4.341,6.914a2.7,2.7,0,0,0,.662-.087Z" transform="translate(8.685 18.559)" fill="#0074b7"/>
      <path id="Path_38743" data-name="Path 38743" d="M47.67,248.87a1.78,1.78,0,0,0-1.78,1.769V260.1a1.78,1.78,0,0,0,1.78,1.78Z" transform="translate(3.933 21.228)" fill="#42333a"/>
      <path id="Path_38744" data-name="Path 38744" d="M50.747,248.87A1.769,1.769,0,0,0,49,250.639V260.1a1.769,1.769,0,0,0,1.769,1.78Z" transform="translate(4.198 21.228)" fill="#42333a"/>
      <path id="Path_38745" data-name="Path 38745" d="M53.829,248.87a1.769,1.769,0,0,0-1.769,1.769V260.1a1.769,1.769,0,0,0,1.769,1.78Z" transform="translate(4.459 21.228)" fill="#42333a"/>
      <path id="Path_38746" data-name="Path 38746" d="M56.92,248.87a1.78,1.78,0,0,0-1.78,1.769V260.1a1.78,1.78,0,0,0,1.78,1.78Z" transform="translate(4.722 21.228)" fill="#42333a"/>
      <path id="Path_38747" data-name="Path 38747" d="M60,248.87a1.769,1.769,0,0,0-1.769,1.769V260.1A1.769,1.769,0,0,0,60,261.883Z" transform="translate(4.986 21.228)" fill="#42333a"/>
      <path id="Path_38748" data-name="Path 38748" d="M177.84,24.48c-.206,2.171-.76,11.559-1.823,11.776a4.732,4.732,0,0,1-2.768-1l-.119.26s2.171,1.65,3.354,1.4,1.726-11.57,1.878-12.232Z" transform="translate(14.79 2.08)" fill="#dd704a"/>
      <path id="Path_38749" data-name="Path 38749" d="M173.218,38.716a6.946,6.946,0,0,1-5.644-4.71c-.358-1.172-.109-1.4,0-1.476a.412.412,0,0,1,.673.456,5.882,5.882,0,0,0,5.144,4.906h.347a.434.434,0,0,1,.358.478.423.423,0,0,1-.478.358Z" transform="translate(14.3 2.756)" fill="#dd704a"/>
      <path id="Path_38750" data-name="Path 38750" d="M168.882,37.758c-.434-.38-.89-.586-1.009-.445s.13.564.564.955.879.586,1.009.445S169.316,38.149,168.882,37.758Z" transform="translate(14.339 3.171)" fill="#dd704a"/>
      <path id="Path_38751" data-name="Path 38751" d="M180.078,27.46a2.355,2.355,0,0,0,.727,2.9c.836.391,1.856-.293,2.29-1.519a3.876,3.876,0,0,0,.174-.792Z" transform="translate(15.364 2.334)" fill="#3f3335"/>
      <path id="Path_38752" data-name="Path 38752" d="M170.339,25h0a2.355,2.355,0,0,0,.716,2.92c.836.391,1.856-.293,2.29-1.519a4.349,4.349,0,0,0,.163-.8Z" transform="translate(14.532 2.124)" fill="#3f3335"/>
      <path id="Path_38753" data-name="Path 38753" d="M175.668,21.049l-4.526-.608a1.574,1.574,0,0,0-1.8,1.237,1.5,1.5,0,0,0,1.335,1.682l4.569.629a1.574,1.574,0,0,0,1.8-1.248,1.487,1.487,0,0,0-1.378-1.693Z" transform="translate(14.466 1.734)" fill="#663842"/>
      <path id="Path_38754" data-name="Path 38754" d="M186.369,24.927l-4.059-2.171a1.574,1.574,0,0,0-2.116.532,1.487,1.487,0,0,0,.662,2.04L184.9,27.5a1.563,1.563,0,0,0,2.171-.532,1.5,1.5,0,0,0-.705-2.04Z" transform="translate(15.378 1.915)" fill="#663842"/>
    </g>
  </g>
</svg>
