<svg xmlns="http://www.w3.org/2000/svg" width="29.999" height="30" viewBox="0 0 29.999 30">
  <g id="Place_holder" data-name="Place holder" transform="translate(0 0)">
    <path id="Path_31914" data-name="Path 31914" d="M14.631,26.992l-4.476,2.441a4.022,4.022,0,0,0-.718.511,14.99,14.99,0,0,0,19.261.05,3.971,3.971,0,0,0-.789-.529l-4.793-2.4a1.828,1.828,0,0,1-1.01-1.635v-1.88a7.239,7.239,0,0,0,.453-.583,11.028,11.028,0,0,0,1.49-3,1.505,1.505,0,0,0,1.068-1.432V16.53a1.5,1.5,0,0,0-.5-1.112v-2.9S25.211,8,19.1,8s-5.519,4.515-5.519,4.515v2.9a1.5,1.5,0,0,0-.5,1.112v2.007a1.5,1.5,0,0,0,.694,1.263,9.96,9.96,0,0,0,1.815,3.755v1.834A1.83,1.83,0,0,1,14.631,26.992Z" transform="translate(-4.095 -3.472)" fill="#e7eced"/>
    <g id="Group_26443" data-name="Group 26443" transform="translate(0 0)">
      <path id="Path_31915" data-name="Path 31915" d="M15.256,0A14.991,14.991,0,0,0,5.348,26.468a3.986,3.986,0,0,1,.712-.506l4.476-2.441a1.828,1.828,0,0,0,.953-1.6V20.082a9.951,9.951,0,0,1-1.815-3.755,1.505,1.505,0,0,1-.694-1.263V13.057a1.5,1.5,0,0,1,.5-1.112v-2.9S8.885,4.528,15,4.528s5.519,4.515,5.519,4.515v2.9a1.5,1.5,0,0,1,.5,1.112v2.007A1.505,1.505,0,0,1,19.952,16.5a11.028,11.028,0,0,1-1.49,3,7.238,7.238,0,0,1-.453.583v1.88a1.827,1.827,0,0,0,1.01,1.635l4.793,2.4a3.991,3.991,0,0,1,.787.528A15,15,0,0,0,15.256,0Z" transform="translate(0 0)" fill="#c8c8c8"/>
    </g>
  </g>
</svg>
